<svg width="65" height="67" viewBox="0 0 65 67" fill="none" xmlns="http://www.w3.org/2000/svg">
<g clip-path="url(#clip0_2_444)">
<path d="M32.5 67C50.4493 67 65 52.0015 65 33.5C65 14.9985 50.4493 0 32.5 0C14.5507 0 0 14.9985 0 33.5C0 52.0015 14.5507 67 32.5 67Z" fill="#4793FF"/>
<path d="M65 33.5C65 30.8153 64.6916 28.2051 64.113 25.703L54.3423 15.6317L53.0241 16.2049L48.3235 11.5057C48.3235 11.5057 46.5495 14.5037 44.5394 13.2715L41.3829 10.0986L41.1963 14.7217L8.78809 47.6886L27.0688 66.5318C28.8351 66.8381 30.6492 67 32.5 67C50.4493 67 65 52.0016 65 33.5Z" fill="#424FDD"/>
<path d="M58.3388 29.8946L59.7103 28.9905L58.2387 28.0204C56.6468 26.9709 56.217 24.7693 57.2916 23.167L58.2847 21.6859L56.6808 21.3988C54.8077 21.0634 53.5845 19.1852 53.9927 17.2714L54.3422 15.6325L52.6363 16.019C50.7905 16.4373 48.9765 15.1937 48.637 13.2774L48.3233 11.5064L46.9922 12.4724C45.4377 13.6005 43.2843 13.164 42.26 11.513L41.3829 10.0994L40.4418 11.6162C39.4237 13.2571 37.2878 13.7001 35.7333 12.5925L34.2964 11.5688L34.0179 13.2221C33.6925 15.1528 31.8705 16.4136 30.0136 15.9929L28.4237 15.6326L28.7987 17.391C29.2044 19.2935 27.998 21.1634 26.1389 21.5133L24.4207 21.8367L25.3579 23.2087C26.4524 24.8111 26.0288 27.0307 24.4272 28.0865L23.0557 28.9906L24.5271 29.9607C26.1192 31.0102 26.5488 33.2117 25.4743 34.8141L24.4812 36.2952L26.0851 36.5823C27.9581 36.9177 29.1813 38.7959 28.7732 40.7097L28.4237 42.3486L30.1296 41.962C31.9753 41.5438 33.7894 42.7874 34.1288 44.7037L34.4425 46.4749L35.7736 45.5089C37.3282 44.3807 39.4816 44.8173 40.5058 46.4682L41.3829 47.8819L42.324 46.3651C43.3422 44.7241 45.4781 44.2811 47.0326 45.3887L48.4695 46.4124L48.748 44.7592C49.0734 42.8285 50.8955 41.5676 52.7522 41.9883L54.3422 42.3486L53.9672 40.5902C53.5614 38.6877 54.7678 36.8178 56.627 36.4679L58.3453 36.1446L57.4081 34.7725C56.3136 33.1701 56.7371 30.9504 58.3388 29.8946V29.8946Z" fill="#FDBF2D"/>
<path d="M57.4082 34.7719L58.3451 36.1433L56.6275 36.4666C54.7676 36.8173 53.5615 38.6872 53.9678 40.5899L54.3423 42.3474L52.7529 41.9875C50.8955 41.5661 49.0738 42.8276 48.7475 44.7578L48.4695 46.4119L47.0323 45.3872C45.4784 44.2802 43.3418 44.7225 42.3237 46.3634L41.3829 47.8814V10.0984L42.2602 11.5117C43.2847 13.1631 45.4378 13.6002 46.9917 12.4709L48.3235 11.5051L48.637 13.277C48.976 15.1927 50.7902 16.4359 52.6361 16.0185L54.3423 15.6311L53.9932 17.2708C53.5844 19.184 54.8082 21.0631 56.6808 21.3981L58.2842 21.6847L57.2914 23.166C56.2174 24.769 56.6465 26.9701 58.2385 28.0196L59.7099 28.9892L58.3388 29.8935C56.7366 30.9495 56.3139 33.1689 57.4082 34.7719Z" fill="#FD9827"/>
<path d="M41.383 42.231C48.4777 42.231 54.2291 36.3027 54.2291 28.9896C54.2291 21.6766 48.4777 15.7482 41.383 15.7482C34.2883 15.7482 28.5369 21.6766 28.5369 28.9896C28.5369 36.3027 34.2883 42.231 41.383 42.231Z" fill="#FFE05F"/>
<path d="M54.2293 28.9892C54.2293 36.303 48.4771 42.2309 41.3829 42.2309V15.7489C48.4771 15.7489 54.2293 21.6768 54.2293 28.9892V28.9892Z" fill="#F9CB0D"/>
<path d="M42.5274 33.2339C42.1958 33.2339 41.8694 33.2559 41.5478 33.2943C41.5794 32.9231 41.5966 32.5475 41.5966 32.1678C41.5966 25.1389 36.0687 19.4408 29.2495 19.4408C23.5703 19.4408 18.7873 23.3935 17.3468 28.7753C16.8894 28.7132 16.4229 28.6808 15.9491 28.6808C10.0886 28.6808 5.33777 33.5778 5.33777 39.6187C5.33777 45.6595 10.0886 50.5565 15.9491 50.5565H42.5274C47.1682 50.5565 50.9302 46.6786 50.9302 41.8952C50.9302 37.1116 47.1682 33.2339 42.5274 33.2339V33.2339Z" fill="white"/>
<path d="M50.9302 41.8941C50.9302 46.6779 47.1684 50.5557 42.5272 50.5557H28.134V19.4915C28.5016 19.4567 28.8735 19.4398 29.2498 19.4398C36.0691 19.4398 41.5969 25.1377 41.5969 32.1668C41.5969 32.5468 41.5795 32.9223 41.5478 33.2934C41.8696 33.2552 42.1956 33.2327 42.5272 33.2327C47.1684 33.2327 50.9302 37.1113 50.9302 41.8941V41.8941Z" fill="#DAEFEC"/>
</g>
<defs>
<clipPath id="clip0_2_444">
<rect width="65" height="67" fill="white"/>
</clipPath>
</defs>
</svg>
